<svg width="17" height="19" viewBox="0 0 17 19" fill="none" xmlns="http://www.w3.org/2000/svg">
<circle cx="8.5" cy="9.5" r="8.5" fill="#79C7FF"/>
<path d="M7.43164 15V13.8721H8.55225V15H7.43164ZM8.46436 11.8213H7.51953V11.5356C7.51953 11.2134 7.55859 10.9326 7.63672 10.6934C7.71484 10.4541 7.81738 10.2441 7.94434 10.0635C8.07617 9.88281 8.22266 9.72168 8.38379 9.58008C8.5498 9.43848 8.71826 9.3042 8.88916 9.17725C9.06494 9.04541 9.2334 8.91357 9.39453 8.78174C9.56055 8.6499 9.70703 8.50342 9.83398 8.34229C9.96582 8.18115 10.0708 7.99805 10.1489 7.79297C10.2271 7.58789 10.2661 7.34619 10.2661 7.06787V6.92871C10.2661 6.69434 10.2222 6.47705 10.1343 6.27686C10.0464 6.07178 9.92432 5.89355 9.76807 5.74219C9.6167 5.59082 9.43848 5.47119 9.2334 5.3833C9.0332 5.29541 8.81592 5.25146 8.58154 5.25146H8.37646C8.14209 5.25146 7.92236 5.29541 7.71729 5.3833C7.51709 5.47119 7.33887 5.59082 7.18262 5.74219C7.03125 5.89355 6.91162 6.07178 6.82373 6.27686C6.73584 6.47705 6.69189 6.69434 6.69189 6.92871V7.35352L5.74707 7.19971V6.92871C5.74707 6.57227 5.81299 6.23779 5.94482 5.92529C6.08154 5.61279 6.26709 5.33936 6.50146 5.10498C6.73584 4.87061 7.00928 4.6875 7.32178 4.55566C7.63916 4.41895 7.97607 4.35059 8.33252 4.35059H8.63281C8.98926 4.35059 9.32373 4.41895 9.63623 4.55566C9.94873 4.6875 10.2222 4.87061 10.4565 5.10498C10.6909 5.33936 10.874 5.61279 11.0059 5.92529C11.1426 6.23779 11.2109 6.57227 11.2109 6.92871V7.06787C11.2109 7.40479 11.1719 7.7002 11.0938 7.9541C11.0156 8.20801 10.9106 8.43262 10.7788 8.62793C10.6519 8.82324 10.5054 8.99658 10.3394 9.14795C10.1782 9.29932 10.0098 9.44092 9.83398 9.57275C9.66309 9.70459 9.49463 9.83398 9.32861 9.96094C9.16748 10.0879 9.021 10.2271 8.88916 10.3784C8.76221 10.5298 8.65967 10.6982 8.58154 10.8838C8.50342 11.0693 8.46436 11.2866 8.46436 11.5356V11.8213Z" fill="white"/>
</svg>
